<svg width="36" height="36" viewBox="0 0 36 36" fill="none" xmlns="http://www.w3.org/2000/svg">
<g id="fluent-mdl2:view">
<path id="Vector" d="M18 16.8C18.7201 16.8 19.3991 16.9328 20.0371 17.1984C20.6751 17.4641 21.2311 17.8271 21.7051 18.2875C22.179 18.7479 22.5573 19.2924 22.8398 19.9211C23.1224 20.5497 23.2591 21.2094 23.25 21.9C23.25 22.6083 23.1133 23.268 22.8398 23.8789C22.5664 24.4898 22.1927 25.0299 21.7188 25.4992C21.2448 25.9685 20.6842 26.3359 20.0371 26.6016C19.39 26.8672 18.7109 27 18 27C17.2708 27 16.5918 26.8672 15.9629 26.6016C15.334 26.3359 14.778 25.9729 14.2949 25.5125C13.8118 25.0521 13.4336 24.512 13.1602 23.8922C12.8867 23.2724 12.75 22.6083 12.75 21.9C12.75 21.2005 12.8867 20.5409 13.1602 19.9211C13.4336 19.3013 13.8073 18.7612 14.2812 18.3008C14.7552 17.8404 15.3112 17.4729 15.9492 17.1984C16.5872 16.924 17.2708 16.7911 18 16.8ZM18 25.3C18.4831 25.3 18.9342 25.2115 19.3535 25.0344C19.7728 24.8573 20.1465 24.6138 20.4746 24.3039C20.8027 23.994 21.0534 23.6354 21.2266 23.2281C21.3997 22.8208 21.4909 22.3781 21.5 21.9C21.5 21.4307 21.4089 20.9924 21.2266 20.5852C21.0443 20.1779 20.7936 19.8148 20.4746 19.4961C20.1556 19.1773 19.7865 18.9339 19.3672 18.7656C18.9479 18.5974 18.4922 18.5089 18 18.5C17.5169 18.5 17.0658 18.5885 16.6465 18.7656C16.2272 18.9427 15.8535 19.1862 15.5254 19.4961C15.1973 19.806 14.9466 20.1646 14.7734 20.5719C14.6003 20.9792 14.5091 21.4219 14.5 21.9C14.5 22.3693 14.5911 22.8076 14.7734 23.2148C14.9557 23.6221 15.2064 23.9852 15.5254 24.3039C15.8444 24.6227 16.2135 24.8661 16.6328 25.0344C17.0521 25.2026 17.5078 25.2911 18 25.3ZM18 10C19.3034 10 20.5977 10.1549 21.8828 10.4648C23.168 10.7747 24.3802 11.2396 25.5195 11.8594C26.6589 12.4792 27.6888 13.2318 28.6094 14.1172C29.5299 15.0026 30.2865 16.0385 30.8789 17.225C31.2435 17.9599 31.5215 18.7169 31.7129 19.4961C31.9043 20.2753 32 21.0766 32 21.9H30.25C30.25 20.8552 30.0859 19.8768 29.7578 18.9648C29.4297 18.0529 28.9785 17.2206 28.4043 16.468C27.8301 15.7154 27.1465 15.0424 26.3535 14.4492C25.5605 13.856 24.7174 13.3557 23.8242 12.9484C22.931 12.5411 21.9785 12.2313 20.9668 12.0187C19.9551 11.8063 18.9661 11.7 18 11.7C17.0156 11.7 16.0267 11.8063 15.0332 12.0187C14.0397 12.2313 13.0918 12.5411 12.1895 12.9484C11.2871 13.3557 10.4395 13.856 9.64648 14.4492C8.85352 15.0424 8.17448 15.7154 7.60938 16.468C7.04427 17.2206 6.58854 18.0529 6.24219 18.9648C5.89583 19.8768 5.73177 20.8552 5.75 21.9H4C4 21.0854 4.0957 20.2885 4.28711 19.5094C4.47852 18.7302 4.75651 17.9688 5.12109 17.225C5.70443 16.0563 6.45638 15.0247 7.37695 14.1305C8.29753 13.2362 9.33203 12.4792 10.4805 11.8594C11.6289 11.2396 12.8411 10.7792 14.1172 10.4781C15.3932 10.1771 16.6875 10.0177 18 10Z" fill="white"/>
</g>
</svg>
